<svg width="108" height="36" viewBox="0 0 108 36" fill="none" xmlns="http://www.w3.org/2000/svg">
<path d="M0 10.5C0 7.23841 0 5.60761 0.532843 4.32122C1.2433 2.60602 2.60602 1.2433 4.32122 0.532843C5.60761 0 7.23841 0 10.5 0H97.5C100.762 0 102.392 0 103.679 0.532843C105.394 1.2433 106.757 2.60602 107.467 4.32122C108 5.60761 108 7.23841 108 10.5V25.5C108 28.7616 108 30.3924 107.467 31.6788C106.757 33.394 105.394 34.7567 103.679 35.4672C102.392 36 100.762 36 97.5 36H10.5C7.23841 36 5.60761 36 4.32122 35.4672C2.60602 34.7567 1.2433 33.394 0.532843 31.6788C0 30.3924 0 28.7616 0 25.5V10.5Z" fill="#0C0D10"/>
<path d="M73.3733 17.2803V19.3422H72.0808V20.6944H73.3733V25.2889C73.3733 26.8578 74.083 27.4853 75.8685 27.4853C76.1822 27.4853 76.4811 27.448 76.7425 27.4031V26.0659C76.5184 26.0883 76.3765 26.1032 76.13 26.1032C75.3306 26.1032 74.9795 25.7297 74.9795 24.878V20.6944H76.7425V19.3422H74.9795V17.2803H73.3733Z" fill="white"/>
<path d="M81.291 27.5974C83.6667 27.5974 85.1235 26.0061 85.1235 23.369C85.1235 20.7467 83.6592 19.148 81.291 19.148C78.9153 19.148 77.4511 20.7467 77.4511 23.369C77.4511 26.0061 78.9079 27.5974 81.291 27.5974ZM81.291 26.1705C79.894 26.1705 79.1096 25.147 79.1096 23.369C79.1096 21.6059 79.894 20.5749 81.291 20.5749C82.6806 20.5749 83.4725 21.6059 83.4725 23.369C83.4725 25.1395 82.6806 26.1705 81.291 26.1705Z" fill="white"/>
<path d="M86.3699 27.4405H87.9761V22.6368C87.9761 21.4938 88.8352 20.7243 90.053 20.7243C90.3368 20.7243 90.815 20.7766 90.9494 20.8214V19.2377C90.7776 19.1928 90.4713 19.1704 90.2323 19.1704C89.1714 19.1704 88.2675 19.7531 88.0359 20.5525H87.9163V19.3049H86.3699V27.4405Z" fill="white"/>
<path d="M94.9376 20.5151C96.1254 20.5151 96.9024 21.3444 96.9397 22.6219H92.8309C92.9205 21.3519 93.7498 20.5151 94.9376 20.5151ZM96.9323 25.2441C96.6334 25.8791 95.9686 26.2302 94.9974 26.2302C93.7124 26.2302 92.8832 25.3263 92.8309 23.8994V23.8097H98.5758V23.2494C98.5758 20.6944 97.2087 19.148 94.9451 19.148C92.6516 19.148 91.1948 20.799 91.1948 23.3988C91.1948 25.9986 92.6217 27.5974 94.9525 27.5974C96.8127 27.5974 98.1126 26.7009 98.4787 25.2441H96.9323Z" fill="white"/>
<path d="M62.84 24.4361C62.9639 26.4339 64.6287 27.7115 67.1065 27.7115C69.7547 27.7115 71.4117 26.3719 71.4117 24.2348C71.4117 22.5546 70.4671 21.6254 68.1751 21.0911L66.9439 20.7891C65.4882 20.4484 64.8997 19.9916 64.8997 19.194C64.8997 18.1874 65.8134 17.5292 67.184 17.5292C68.4848 17.5292 69.383 18.1719 69.5456 19.2018H71.2336C71.133 17.3202 69.4759 15.9961 67.2072 15.9961C64.7681 15.9961 63.142 17.3202 63.142 19.3102C63.142 20.9517 64.0635 21.9274 66.0844 22.3997L67.5247 22.7481C69.0036 23.0966 69.654 23.6076 69.654 24.4594C69.654 25.4505 68.6319 26.1706 67.2382 26.1706C65.7437 26.1706 64.7061 25.497 64.559 24.4361H62.84Z" fill="white"/>
<path d="M46.2014 19.1704C45.0958 19.1704 44.1395 19.7233 43.6465 20.6496H43.5269V19.3049H41.9805V30.1449H43.5867V26.2078H43.7137C44.1395 27.067 45.0584 27.575 46.2164 27.575C48.2708 27.575 49.5782 25.9538 49.5782 23.369C49.5782 20.7841 48.2708 19.1704 46.2014 19.1704ZM45.7457 26.1331C44.401 26.1331 43.5568 25.0723 43.5568 23.3764C43.5568 21.6731 44.401 20.6123 45.7532 20.6123C47.1129 20.6123 47.9272 21.6507 47.9272 23.369C47.9272 25.0947 47.1129 26.1331 45.7457 26.1331Z" fill="white"/>
<path d="M55.1986 19.1704C54.0929 19.1704 53.1366 19.7233 52.6436 20.6496H52.524V19.3049H50.9776V30.1449H52.5838V26.2078H52.7108C53.1366 27.067 54.0555 27.575 55.2135 27.575C57.2679 27.575 58.5753 25.9538 58.5753 23.369C58.5753 20.7841 57.2679 19.1704 55.1986 19.1704ZM54.7428 26.1331C53.3981 26.1331 52.5539 25.0723 52.5539 23.3764C52.5539 21.6731 53.3981 20.6123 54.7503 20.6123C56.11 20.6123 56.9243 21.6507 56.9243 23.369C56.9243 25.0947 56.11 26.1331 54.7428 26.1331Z" fill="white"/>
<path d="M39.0987 27.4405H40.9416L36.9074 16.2671H35.0413L31.0071 27.4405H32.788L33.8178 24.4749H38.0766L39.0987 27.4405ZM35.8853 18.2958H36.0169L37.6352 23.0191H34.2592L35.8853 18.2958Z" fill="white"/>
<path d="M32.0859 7.83943V13.2295H34.0321C35.6383 13.2295 36.5684 12.2397 36.5684 10.5177C36.5684 8.82183 35.6308 7.83943 34.0321 7.83943H32.0859ZM32.9227 8.60144H33.9387C35.0555 8.60144 35.7167 9.31116 35.7167 10.5289C35.7167 11.7653 35.0667 12.4675 33.9387 12.4675H32.9227V8.60144Z" fill="white"/>
<path d="M39.4169 13.308C40.6048 13.308 41.3332 12.5124 41.3332 11.1938C41.3332 9.88267 40.601 9.0833 39.4169 9.0833C38.2291 9.0833 37.497 9.88267 37.497 11.1938C37.497 12.5124 38.2254 13.308 39.4169 13.308ZM39.4169 12.5945C38.7184 12.5945 38.3262 12.0828 38.3262 11.1938C38.3262 10.3122 38.7184 9.79675 39.4169 9.79675C40.1117 9.79675 40.5077 10.3122 40.5077 11.1938C40.5077 12.0791 40.1117 12.5945 39.4169 12.5945Z" fill="white"/>
<path d="M47.5361 9.16174H46.733L46.0083 12.2658H45.9448L45.1081 9.16174H44.3386L43.5019 12.2658H43.4422L42.7138 9.16174H41.8995L43.0201 13.2295H43.8456L44.6823 10.2338H44.7458L45.5862 13.2295H46.4192L47.5361 9.16174Z" fill="white"/>
<path d="M48.461 13.2295H49.2641V10.8501C49.2641 10.2151 49.6413 9.81916 50.2353 9.81916C50.8292 9.81916 51.1131 10.1441 51.1131 10.7978V13.2295H51.9162V10.5961C51.9162 9.62866 51.4156 9.0833 50.5079 9.0833C49.8953 9.0833 49.4919 9.35598 49.294 9.80796H49.2342V9.16174H48.461V13.2295Z" fill="white"/>
<path d="M53.181 13.2295H53.9841V7.57422H53.181V13.2295Z" fill="white"/>
<path d="M57.0045 13.308C58.1923 13.308 58.9207 12.5124 58.9207 11.1938C58.9207 9.88267 58.1886 9.0833 57.0045 9.0833C55.8166 9.0833 55.0845 9.88267 55.0845 11.1938C55.0845 12.5124 55.8129 13.308 57.0045 13.308ZM57.0045 12.5945C56.306 12.5945 55.9137 12.0828 55.9137 11.1938C55.9137 10.3122 56.306 9.79675 57.0045 9.79675C57.6992 9.79675 58.0952 10.3122 58.0952 11.1938C58.0952 12.0791 57.6992 12.5945 57.0045 12.5945Z" fill="white"/>
<path d="M61.3136 12.6207C60.8765 12.6207 60.559 12.4078 60.559 12.0417C60.559 11.6831 60.813 11.4926 61.3733 11.4552L62.3669 11.3917V11.7317C62.3669 12.2359 61.9187 12.6207 61.3136 12.6207ZM61.1081 13.2968C61.6423 13.2968 62.0868 13.0652 62.3296 12.658H62.3931V13.2295H63.1663V10.4504C63.1663 9.59131 62.5911 9.0833 61.5713 9.0833C60.6487 9.0833 59.9913 9.53154 59.9091 10.2301H60.686C60.7757 9.94243 61.0857 9.77808 61.534 9.77808C62.083 9.77808 62.3669 10.0209 62.3669 10.4504V10.8016L61.265 10.8651C60.2976 10.9248 59.7522 11.3469 59.7522 12.0791C59.7522 12.8224 60.3237 13.2968 61.1081 13.2968Z" fill="white"/>
<path d="M65.8916 13.2968C66.4519 13.2968 66.9263 13.0316 67.1691 12.5871H67.2326V13.2295H68.0021V7.57422H67.199V9.80796H67.1392C66.9188 9.35972 66.4482 9.09451 65.8916 9.09451C64.8644 9.09451 64.2032 9.90881 64.2032 11.1938C64.2032 12.4825 64.8569 13.2968 65.8916 13.2968ZM66.1195 9.81543C66.7918 9.81543 67.2139 10.3496 67.2139 11.1975C67.2139 12.0492 66.7956 12.5759 66.1195 12.5759C65.4396 12.5759 65.0325 12.0566 65.0325 11.1938C65.0325 10.3384 65.4434 9.81543 66.1195 9.81543Z" fill="white"/>
<path d="M73.2099 13.308C74.3978 13.308 75.1262 12.5124 75.1262 11.1938C75.1262 9.88267 74.394 9.0833 73.2099 9.0833C72.0221 9.0833 71.2899 9.88267 71.2899 11.1938C71.2899 12.5124 72.0183 13.308 73.2099 13.308ZM73.2099 12.5945C72.5114 12.5945 72.1192 12.0828 72.1192 11.1938C72.1192 10.3122 72.5114 9.79675 73.2099 9.79675C73.9047 9.79675 74.3006 10.3122 74.3006 11.1938C74.3006 12.0791 73.9047 12.5945 73.2099 12.5945Z" fill="white"/>
<path d="M76.1892 13.2295H76.9923V10.8501C76.9923 10.2151 77.3696 9.81916 77.9635 9.81916C78.5574 9.81916 78.8413 10.1441 78.8413 10.7978V13.2295H79.6444V10.5961C79.6444 9.62866 79.1439 9.0833 78.2362 9.0833C77.6236 9.0833 77.2202 9.35598 77.0222 9.80796H76.9625V9.16174H76.1892V13.2295Z" fill="white"/>
<path d="M83.3432 8.14946V9.18042H82.697V9.85652H83.3432V12.1538C83.3432 12.9382 83.698 13.252 84.5908 13.252C84.7477 13.252 84.8971 13.2333 85.0278 13.2109V12.5422C84.9158 12.5534 84.8448 12.5609 84.7215 12.5609C84.3218 12.5609 84.1463 12.3741 84.1463 11.9483V9.85652H85.0278V9.18042H84.1463V8.14946H83.3432Z" fill="white"/>
<path d="M86.1058 13.2295H86.9089V10.8539C86.9089 10.2375 87.275 9.8229 87.9324 9.8229C88.5002 9.8229 88.8028 10.1516 88.8028 10.8016V13.2295H89.6059V10.6036C89.6059 9.63613 89.0717 9.08704 88.2051 9.08704C87.5925 9.08704 87.1629 9.35972 86.965 9.81543H86.9015V7.57422H86.1058V13.2295Z" fill="white"/>
<path d="M92.503 9.76687C93.0969 9.76687 93.4854 10.1815 93.5041 10.8202H91.4496C91.4945 10.1852 91.9091 9.76687 92.503 9.76687ZM93.5003 12.1313C93.3509 12.4489 93.0185 12.6244 92.5329 12.6244C91.8904 12.6244 91.4758 12.1724 91.4496 11.459V11.4142H94.3221V11.134C94.3221 9.85652 93.6386 9.0833 92.5067 9.0833C91.36 9.0833 90.6316 9.90881 90.6316 11.2087C90.6316 12.5086 91.345 13.308 92.5105 13.308C93.4406 13.308 94.0905 12.8597 94.2736 12.1313H93.5003Z" fill="white"/>
<path d="M22.2922 18.27C22.3117 16.7571 23.1242 15.3255 24.4131 14.5331C23.6 13.3718 22.238 12.6355 20.821 12.5912C19.3097 12.4326 17.8446 13.4956 17.0744 13.4956C16.2894 13.4956 15.1036 12.607 13.8268 12.6332C12.1625 12.687 10.6109 13.6333 9.80116 15.0883C8.06056 18.1019 9.35889 22.5308 11.0262 24.9668C11.8605 26.1596 12.8354 27.492 14.1111 27.4448C15.3595 27.393 15.8257 26.6487 17.3326 26.6487C18.8255 26.6487 19.2629 27.4448 20.5645 27.4147C21.904 27.393 22.748 26.2166 23.5529 25.0125C24.1523 24.1626 24.6135 23.2232 24.9195 22.2292C23.3453 21.5634 22.294 19.9792 22.2922 18.27Z" fill="white"/>
<path d="M19.8337 10.9892C20.5641 10.1124 20.9239 8.98547 20.8368 7.84766C19.7209 7.96485 18.6902 8.49816 17.9499 9.34131C17.2261 10.1651 16.8494 11.2722 16.9206 12.3666C18.0369 12.378 19.1342 11.8592 19.8337 10.9892Z" fill="white"/>
<path d="M4.32122 35.4672L3.93853 36.391L4.32122 35.4672ZM107.467 31.6788L106.543 31.2961L107.467 31.6788ZM103.679 35.4672L103.296 34.5433L103.679 35.4672ZM103.679 0.532843L104.061 -0.391036L103.679 0.532843ZM107.467 4.32122L108.391 3.93853L107.467 4.32122ZM10.5 1H97.5V-1H10.5V1ZM107 10.5V25.5H109V10.5H107ZM97.5 35H10.5V37H97.5V35ZM1 25.5V10.5H-1V25.5H1ZM10.5 35C8.85552 35 7.67225 34.9995 6.73798 34.9357C5.8127 34.8726 5.20494 34.7508 4.7039 34.5433L3.93853 36.391C4.72389 36.7163 5.57473 36.861 6.60184 36.9311C7.61997 37.0005 8.88289 37 10.5 37V35ZM-1 25.5C-1 27.1171 -1.00054 28.38 -0.931075 29.3982C-0.860996 30.4253 -0.716341 31.2761 -0.391036 32.0615L1.45672 31.2961C1.24918 30.7951 1.12742 30.1873 1.06429 29.262C1.00054 28.3278 1 27.1445 1 25.5H-1ZM4.7039 34.5433C3.23373 33.9343 2.06569 32.7663 1.45672 31.2961L-0.391036 32.0615C0.420915 34.0217 1.97831 35.5791 3.93853 36.391L4.7039 34.5433ZM107 25.5C107 27.1445 106.999 28.3278 106.936 29.262C106.873 30.1873 106.751 30.7951 106.543 31.2961L108.391 32.0615C108.716 31.2761 108.861 30.4253 108.931 29.3982C109.001 28.38 109 27.1171 109 25.5H107ZM97.5 37C99.1171 37 100.38 37.0005 101.398 36.9311C102.425 36.861 103.276 36.7163 104.061 36.391L103.296 34.5433C102.795 34.7508 102.187 34.8726 101.262 34.9357C100.328 34.9995 99.1445 35 97.5 35V37ZM106.543 31.2961C105.934 32.7663 104.766 33.9343 103.296 34.5433L104.061 36.391C106.022 35.5791 107.579 34.0217 108.391 32.0615L106.543 31.2961ZM97.5 1C99.1445 1 100.328 1.00054 101.262 1.06429C102.187 1.12742 102.795 1.24918 103.296 1.45672L104.061 -0.391036C103.276 -0.716341 102.425 -0.860996 101.398 -0.931075C100.38 -1.00054 99.1171 -1 97.5 -1V1ZM109 10.5C109 8.88289 109.001 7.61997 108.931 6.60184C108.861 5.57473 108.716 4.72389 108.391 3.93853L106.543 4.7039C106.751 5.20494 106.873 5.8127 106.936 6.73798C106.999 7.67225 107 8.85552 107 10.5H109ZM103.296 1.45672C104.766 2.06569 105.934 3.23373 106.543 4.7039L108.391 3.93853C107.579 1.97831 106.022 0.420915 104.061 -0.391036L103.296 1.45672ZM10.5 -1C8.88289 -1 7.61997 -1.00054 6.60184 -0.931075C5.57473 -0.860996 4.72389 -0.716341 3.93853 -0.391036L4.7039 1.45672C5.20494 1.24918 5.8127 1.12742 6.73798 1.06429C7.67225 1.00054 8.85552 1 10.5 1V-1ZM1 10.5C1 8.85552 1.00054 7.67225 1.06429 6.73798C1.12742 5.8127 1.24918 5.20494 1.45672 4.7039L-0.391036 3.93853C-0.716341 4.72389 -0.860996 5.57473 -0.931075 6.60184C-1.00054 7.61997 -1 8.88289 -1 10.5H1ZM3.93853 -0.391036C1.97831 0.420915 0.420915 1.97831 -0.391036 3.93853L1.45672 4.7039C2.06569 3.23373 3.23373 2.06569 4.7039 1.45672L3.93853 -0.391036Z" fill="#A6A6A6"/>
</svg>
