<svg width="122" height="36" viewBox="0 0 122 36" fill="none" xmlns="http://www.w3.org/2000/svg">
<path d="M0 5C0 2.23858 2.23858 0 5 0H117C119.761 0 122 2.23858 122 5V31C122 33.7614 119.761 36 117 36H5C2.23858 36 0 33.7614 0 31V5Z" fill="black"/>
<path d="M61.5748 19.5754C59.4493 19.5754 57.7169 21.1855 57.7169 23.4031C57.7169 25.6072 59.4493 27.2308 61.5748 27.2308C63.7012 27.2308 65.4336 25.6072 65.4336 23.4031C65.4327 21.1855 63.7003 19.5754 61.5748 19.5754ZM61.5748 25.7242C60.4099 25.7242 59.4059 24.7675 59.4059 23.404C59.4059 22.0261 60.4108 21.0838 61.5748 21.0838C62.7397 21.0838 63.7437 22.0261 63.7437 23.404C63.7437 24.7666 62.7397 25.7242 61.5748 25.7242ZM53.1577 19.5754C51.0322 19.5754 49.2998 21.1855 49.2998 23.4031C49.2998 25.6072 51.0322 27.2308 53.1577 27.2308C55.2841 27.2308 57.0165 25.6072 57.0165 23.4031C57.0165 21.1855 55.2841 19.5754 53.1577 19.5754ZM53.1577 25.7242C51.9928 25.7242 50.9888 24.7675 50.9888 23.404C50.9888 22.0261 51.9937 21.0838 53.1577 21.0838C54.3226 21.0838 55.3266 22.0261 55.3266 23.404C55.3275 24.7666 54.3226 25.7242 53.1577 25.7242ZM43.1465 20.7508V22.3744H47.0487C46.9321 23.2879 46.6266 23.9548 46.1603 24.4183C45.5928 24.9835 44.7045 25.6072 43.1465 25.6072C40.7444 25.6072 38.8665 23.6785 38.8665 21.2863C38.8665 18.8941 40.7444 16.9654 43.1465 16.9654C44.4424 16.9654 45.3886 17.473 46.0871 18.1255L47.2375 16.9798C46.2615 16.0519 44.9665 15.3418 43.1465 15.3418C39.8561 15.3418 37.0898 18.0094 37.0898 21.2863C37.0898 24.5632 39.8561 27.2308 43.1465 27.2308C44.9222 27.2308 46.2624 26.6503 47.3098 25.5631C48.387 24.4903 48.7223 22.9819 48.7223 21.7642C48.7223 21.388 48.6934 21.0397 48.6347 20.7499H43.1465V20.7508ZM84.0915 22.0117C83.7716 21.1567 82.7956 19.5754 80.8011 19.5754C78.8211 19.5754 77.1754 21.127 77.1754 23.4031C77.1754 25.5487 78.8066 27.2308 80.99 27.2308C82.7513 27.2308 83.7707 26.158 84.1936 25.5343L82.8832 24.664C82.4467 25.3021 81.8494 25.7224 80.99 25.7224C80.1314 25.7224 79.5196 25.3309 79.1265 24.5623L84.2659 22.4455L84.0915 22.0117ZM78.85 23.2879C78.8066 21.8083 80.0004 21.055 80.8598 21.055C81.5295 21.055 82.097 21.3889 82.2868 21.8668L78.85 23.2879ZM74.6722 26.9995H76.3603V15.7486H74.6722V26.9995ZM71.905 20.4313H71.8472C71.4685 19.9813 70.7402 19.5754 69.8238 19.5754C67.9016 19.5754 66.1403 21.2575 66.1403 23.4184C66.1403 25.564 67.9016 27.2317 69.8238 27.2317C70.7411 27.2317 71.4685 26.8258 71.8472 26.3623H71.905V26.9131C71.905 28.3774 71.1188 29.1604 69.8527 29.1604C68.8189 29.1604 68.1782 28.4215 67.9161 27.7978L66.4458 28.4071C66.8678 29.4214 67.9884 30.6688 69.8527 30.6688C71.8327 30.6688 73.5073 29.5087 73.5073 26.6809V19.8085H71.9059V20.4313H71.905ZM69.9693 25.7242C68.8044 25.7242 67.8293 24.7522 67.8293 23.4184C67.8293 22.0693 68.8044 21.0838 69.9693 21.0838C71.1188 21.0838 72.0216 22.0693 72.0216 23.4184C72.0216 24.7522 71.1188 25.7242 69.9693 25.7242ZM92.0025 15.7486H87.962V26.9995H89.6474V22.7371H92.0016C93.8704 22.7371 95.7086 21.3898 95.7086 19.2433C95.7086 17.0968 93.8713 15.7486 92.0025 15.7486ZM92.0459 21.1711H89.6474V17.3146H92.0459C93.3065 17.3146 94.0223 18.3541 94.0223 19.2433C94.0223 20.1145 93.3065 21.1711 92.0459 21.1711ZM102.467 19.5556C101.246 19.5556 99.9822 20.0911 99.459 21.2782L100.955 21.9001C101.275 21.2782 101.872 21.0748 102.496 21.0748C103.368 21.0748 104.255 21.5959 104.269 22.522V22.6381C103.964 22.4644 103.31 22.2043 102.511 22.2043C100.898 22.2043 99.2547 23.0872 99.2547 24.7369C99.2547 26.2426 100.578 27.2119 102.06 27.2119C103.193 27.2119 103.818 26.7052 104.211 26.1112H104.268V26.9797H105.897V22.666C105.898 20.6698 104.399 19.5556 102.467 19.5556ZM102.263 25.7215C101.712 25.7215 100.941 25.4461 100.941 24.7657C100.941 23.8972 101.901 23.5642 102.729 23.5642C103.47 23.5642 103.819 23.7235 104.269 23.9404C104.138 24.9835 103.237 25.7215 102.263 25.7215ZM111.827 19.8013L109.894 24.6793H109.836L107.83 19.8013H106.014L109.022 26.6188L107.307 30.4114H109.065L113.702 19.8013H111.827ZM96.6394 26.9995H98.3248V15.7486H96.6394V26.9995Z" fill="white"/>
<path d="M42.852 9.21789C42.852 9.97209 42.6279 10.5724 42.1787 11.0206C41.669 11.5534 41.0039 11.8198 40.187 11.8198C39.4044 11.8198 38.7383 11.5498 38.1916 11.0098C37.6439 10.4689 37.3701 9.79929 37.3701 9.00009C37.3701 8.19999 37.6439 7.53039 38.1916 6.99039C38.7383 6.44949 39.4044 6.17949 40.187 6.17949C40.5756 6.17949 40.947 6.25509 41.2994 6.40539C41.6528 6.55659 41.9356 6.75729 42.1471 7.00839L41.6708 7.48359C41.3121 7.05609 40.8177 6.84279 40.1861 6.84279C39.6149 6.84279 39.1215 7.04259 38.7049 7.44219C38.2883 7.84179 38.0804 8.36109 38.0804 8.99919C38.0804 9.63729 38.2883 10.1566 38.7049 10.5562C39.1215 10.9558 39.6149 11.1556 40.1861 11.1556C40.7915 11.1556 41.2967 10.9549 41.7007 10.5526C41.9627 10.2907 42.1146 9.92619 42.1552 9.45909H40.1861V8.81019H42.8131C42.8402 8.95149 42.852 9.08739 42.852 9.21789Z" fill="white"/>
<path d="M47.0181 6.96254H44.5492V8.67434H46.7759V9.32324H44.5492V11.035H47.0181V11.6992H43.8525V6.29924H47.0181V6.96254Z" fill="white"/>
<path d="M49.956 11.6992H49.2592V6.96254H47.7446V6.29924H51.4706V6.96254H49.956V11.6992Z" fill="white"/>
<path d="M54.1663 11.6992V6.29924H54.8631V11.6992H54.1663Z" fill="white"/>
<path d="M57.953 11.6992H57.2562V6.96254H55.7416V6.29924H59.4676V6.96254H57.953V11.6992Z" fill="white"/>
<path d="M66.5208 11.0017C65.9876 11.5471 65.3252 11.8198 64.5326 11.8198C63.7401 11.8198 63.0777 11.5471 62.5454 11.0017C62.0122 10.4563 61.7465 9.78853 61.7465 8.99923C61.7465 8.20993 62.0122 7.54213 62.5454 6.99673C63.0777 6.45133 63.7401 6.17773 64.5326 6.17773C65.3207 6.17773 65.9822 6.45223 66.5172 7.00033C67.0522 7.54843 67.3196 8.21443 67.3196 8.99923C67.3196 9.78853 67.0531 10.4563 66.5208 11.0017ZM63.0596 10.549C63.4608 10.954 63.9515 11.1556 64.5326 11.1556C65.1137 11.1556 65.6053 10.9531 66.0057 10.549C66.4069 10.144 66.6084 9.62743 66.6084 8.99923C66.6084 8.37103 66.4069 7.85443 66.0057 7.44943C65.6053 7.04443 65.1137 6.84283 64.5326 6.84283C63.9515 6.84283 63.4608 7.04533 63.0596 7.44943C62.6592 7.85443 62.4577 8.37103 62.4577 8.99923C62.4577 9.62743 62.6592 10.144 63.0596 10.549Z" fill="white"/>
<path d="M68.2975 11.6992V6.29924H69.1452L71.7804 10.4995H71.8102L71.7804 9.45914V6.29924H72.4771V11.6992H71.7496L68.9924 7.29464H68.9626L68.9924 8.33504V11.6992H68.2975Z" fill="white"/>
<path d="M42.852 9.21789C42.852 9.97209 42.6279 10.5724 42.1787 11.0206C41.669 11.5534 41.0039 11.8198 40.187 11.8198C39.4044 11.8198 38.7383 11.5498 38.1916 11.0098C37.6439 10.4689 37.3701 9.79929 37.3701 9.00009C37.3701 8.19999 37.6439 7.53039 38.1916 6.99039C38.7383 6.44949 39.4044 6.17949 40.187 6.17949C40.5756 6.17949 40.947 6.25509 41.2994 6.40539C41.6528 6.55659 41.9356 6.75729 42.1471 7.00839L41.6708 7.48359C41.3121 7.05609 40.8177 6.84279 40.1861 6.84279C39.6149 6.84279 39.1215 7.04259 38.7049 7.44219C38.2883 7.84179 38.0804 8.36109 38.0804 8.99919C38.0804 9.63729 38.2883 10.1566 38.7049 10.5562C39.1215 10.9558 39.6149 11.1556 40.1861 11.1556C40.7915 11.1556 41.2967 10.9549 41.7007 10.5526C41.9627 10.2907 42.1146 9.92619 42.1552 9.45909H40.1861V8.81019H42.8131C42.8402 8.95149 42.852 9.08739 42.852 9.21789Z" stroke="white" stroke-width="0.2" stroke-miterlimit="10"/>
<path d="M47.0181 6.96254H44.5492V8.67434H46.7759V9.32324H44.5492V11.035H47.0181V11.6992H43.8525V6.29924H47.0181V6.96254Z" stroke="white" stroke-width="0.2" stroke-miterlimit="10"/>
<path d="M49.956 11.6992H49.2592V6.96254H47.7446V6.29924H51.4706V6.96254H49.956V11.6992Z" stroke="white" stroke-width="0.2" stroke-miterlimit="10"/>
<path d="M54.1663 11.6992V6.29924H54.8631V11.6992H54.1663Z" stroke="white" stroke-width="0.2" stroke-miterlimit="10"/>
<path d="M57.953 11.6992H57.2562V6.96254H55.7416V6.29924H59.4676V6.96254H57.953V11.6992Z" stroke="white" stroke-width="0.2" stroke-miterlimit="10"/>
<path d="M66.5208 11.0017C65.9876 11.5471 65.3252 11.8198 64.5326 11.8198C63.7401 11.8198 63.0777 11.5471 62.5454 11.0017C62.0122 10.4563 61.7465 9.78853 61.7465 8.99923C61.7465 8.20993 62.0122 7.54213 62.5454 6.99673C63.0777 6.45133 63.7401 6.17773 64.5326 6.17773C65.3207 6.17773 65.9822 6.45223 66.5172 7.00033C67.0522 7.54843 67.3196 8.21443 67.3196 8.99923C67.3196 9.78853 67.0531 10.4563 66.5208 11.0017ZM63.0596 10.549C63.4608 10.954 63.9515 11.1556 64.5326 11.1556C65.1137 11.1556 65.6053 10.9531 66.0057 10.549C66.4069 10.144 66.6084 9.62743 66.6084 8.99923C66.6084 8.37103 66.4069 7.85443 66.0057 7.44943C65.6053 7.04443 65.1137 6.84283 64.5326 6.84283C63.9515 6.84283 63.4608 7.04533 63.0596 7.44943C62.6592 7.85443 62.4577 8.37103 62.4577 8.99923C62.4577 9.62743 62.6592 10.144 63.0596 10.549Z" stroke="white" stroke-width="0.2" stroke-miterlimit="10"/>
<path d="M68.2975 11.6992V6.29924H69.1452L71.7804 10.4995H71.8102L71.7804 9.45914V6.29924H72.4771V11.6992H71.7496L68.9924 7.29464H68.9626L68.9924 8.33504V11.6992H68.2975Z" stroke="white" stroke-width="0.2" stroke-miterlimit="10"/>
<g filter="url(#filter0_ii)">
<path d="M9.43111 6.78445C9.16813 7.06165 9.01269 7.49185 9.01269 8.04895V27.9533C9.01269 28.5113 9.16813 28.9406 9.43111 29.2178L9.49798 29.2826L20.694 18.1325V18.0011V17.8697L9.49798 6.71875L9.43111 6.78445Z" fill="url(#paint0_linear)"/>
<path d="M24.4252 21.852L20.6938 18.1341V18.0027V17.8713L24.4261 14.1543L24.5102 14.202L28.932 16.704C30.1945 17.4186 30.1945 18.5877 28.932 19.3032L24.5102 21.8052L24.4252 21.852Z" fill="url(#paint1_linear)"/>
<g filter="url(#filter1_i)">
<path d="M24.5104 21.8036L20.6931 18.002L9.43115 29.2187C9.84686 29.6579 10.5346 29.7119 11.309 29.2745L24.5104 21.8036Z" fill="url(#paint2_linear)"/>
</g>
<path d="M24.5104 14.2002L11.309 6.7302C10.5346 6.2919 9.84686 6.3468 9.43115 6.786L20.694 18.0027L24.5104 14.2002Z" fill="url(#paint3_linear)"/>
</g>
<path d="M5 1H117V-1H5V1ZM121 5V31H123V5H121ZM117 35H5V37H117V35ZM1 31V5H-1V31H1ZM5 35C2.79086 35 1 33.2091 1 31H-1C-1 34.3137 1.68629 37 5 37V35ZM121 31C121 33.2091 119.209 35 117 35V37C120.314 37 123 34.3137 123 31H121ZM117 1C119.209 1 121 2.79086 121 5H123C123 1.68629 120.314 -1 117 -1V1ZM5 -1C1.68629 -1 -1 1.68629 -1 5H1C1 2.79086 2.79086 1 5 1V-1Z" fill="#A6A6A6"/>
<defs>
<filter id="filter0_ii" x="9.0127" y="6.42773" width="20.8662" height="23.1488" filterUnits="userSpaceOnUse" color-interpolation-filters="sRGB">
<feFlood flood-opacity="0" result="BackgroundImageFix"/>
<feBlend mode="normal" in="SourceGraphic" in2="BackgroundImageFix" result="shape"/>
<feColorMatrix in="SourceAlpha" type="matrix" values="0 0 0 0 0 0 0 0 0 0 0 0 0 0 0 0 0 0 127 0" result="hardAlpha"/>
<feOffset dy="-0.15"/>
<feComposite in2="hardAlpha" operator="arithmetic" k2="-1" k3="1"/>
<feColorMatrix type="matrix" values="0 0 0 0 0 0 0 0 0 0 0 0 0 0 0 0 0 0 0.12 0"/>
<feBlend mode="normal" in2="shape" result="effect1_innerShadow"/>
<feColorMatrix in="SourceAlpha" type="matrix" values="0 0 0 0 0 0 0 0 0 0 0 0 0 0 0 0 0 0 127 0" result="hardAlpha"/>
<feOffset dy="0.15"/>
<feComposite in2="hardAlpha" operator="arithmetic" k2="-1" k3="1"/>
<feColorMatrix type="matrix" values="0 0 0 0 1 0 0 0 0 1 0 0 0 0 1 0 0 0 0.25 0"/>
<feBlend mode="normal" in2="effect1_innerShadow" result="effect2_innerShadow"/>
</filter>
<filter id="filter1_i" x="9.43115" y="18.002" width="15.0792" height="11.5746" filterUnits="userSpaceOnUse" color-interpolation-filters="sRGB">
<feFlood flood-opacity="0" result="BackgroundImageFix"/>
<feBlend mode="normal" in="SourceGraphic" in2="BackgroundImageFix" result="shape"/>
<feColorMatrix in="SourceAlpha" type="matrix" values="0 0 0 0 0 0 0 0 0 0 0 0 0 0 0 0 0 0 127 0" result="hardAlpha"/>
<feOffset dy="-0.15"/>
<feComposite in2="hardAlpha" operator="arithmetic" k2="-1" k3="1"/>
<feColorMatrix type="matrix" values="0 0 0 0 0 0 0 0 0 0 0 0 0 0 0 0 0 0 0.08 0"/>
<feBlend mode="normal" in2="shape" result="effect1_innerShadow"/>
</filter>
<linearGradient id="paint0_linear" x1="19.7015" y1="7.83835" x2="4.59785" y2="23.0042" gradientUnits="userSpaceOnUse">
<stop stop-color="#00A0FF"/>
<stop offset="0.0066" stop-color="#00A1FF"/>
<stop offset="0.2601" stop-color="#00BEFF"/>
<stop offset="0.5122" stop-color="#00D2FF"/>
<stop offset="0.7604" stop-color="#00DFFF"/>
<stop offset="1" stop-color="#00E3FF"/>
</linearGradient>
<linearGradient id="paint1_linear" x1="30.5754" y1="18.0027" x2="8.70947" y2="18.0027" gradientUnits="userSpaceOnUse">
<stop stop-color="#FFE000"/>
<stop offset="0.4087" stop-color="#FFBD00"/>
<stop offset="0.7754" stop-color="#FFA500"/>
<stop offset="1" stop-color="#FF9C00"/>
</linearGradient>
<linearGradient id="paint2_linear" x1="22.4373" y1="20.0665" x2="1.95487" y2="40.6332" gradientUnits="userSpaceOnUse">
<stop stop-color="#FF3A44"/>
<stop offset="1" stop-color="#C31162"/>
</linearGradient>
<linearGradient id="paint3_linear" x1="6.59479" y1="0.160023" x2="15.7408" y2="9.34365" gradientUnits="userSpaceOnUse">
<stop stop-color="#32A071"/>
<stop offset="0.0685" stop-color="#2DA771"/>
<stop offset="0.4762" stop-color="#15CF74"/>
<stop offset="0.8009" stop-color="#06E775"/>
<stop offset="1" stop-color="#00F076"/>
</linearGradient>
</defs>
</svg>
